<svg xmlns="http://www.w3.org/2000/svg" width="89.828" height="80.074"><path d="M53.856 74.993q-5.078-5.087-5.081-13.21 0-5.7 4.473-15.446L73.569-.001h16.259L73.975 45.93a15.31 15.31 0 017.52 6.5 18.634 18.634 0 01-2.439 22.356 17.021 17.021 0 01-12.8 5.284 16.883 16.883 0 01-12.4-5.077zm-48.775 0Q0 69.906 0 61.783q0-5.7 4.47-15.446L24.794-.001h16.258L25.2 45.93a15.321 15.321 0 017.52 6.5 18.634 18.634 0 01-2.439 22.356 17.023 17.023 0 01-12.8 5.284 16.876 16.876 0 01-12.4-5.077z" fill="#9093be"/></svg>