<svg xmlns="http://www.w3.org/2000/svg" width="89.828" height="80.074" viewBox="0 0 89.828 80.074"><defs><style>.a{fill:#9093be;}</style></defs><g transform="translate(0 -9.501)"><path class="a" d="M53.856,84.494q-5.078-5.087-5.081-13.21,0-5.7,4.473-15.446L73.569,9.5H89.828L73.975,55.431a15.31,15.31,0,0,1,7.52,6.5,18.634,18.634,0,0,1-2.439,22.356,17.021,17.021,0,0,1-12.8,5.284A16.883,16.883,0,0,1,53.856,84.494Zm-48.775,0Q0,79.407,0,71.284q0-5.7,4.47-15.446L24.794,9.5H41.052L25.2,55.431a15.321,15.321,0,0,1,7.52,6.5,18.634,18.634,0,0,1-2.439,22.356,17.023,17.023,0,0,1-12.8,5.284A16.876,16.876,0,0,1,5.081,84.494Z"/></g></svg>